<?xml version="1.0" encoding="utf-8"?>
<!-- Generator: Adobe Illustrator 28.1.0, SVG Export Plug-In . SVG Version: 6.00 Build 0)  -->
<svg version="1.1" id="Layer_1" xmlns="http://www.w3.org/2000/svg" xmlns:xlink="http://www.w3.org/1999/xlink" x="0px" y="0px"
	 viewBox="0 0 185.3 112.3" style="enable-background:new 0 0 185.3 112.3;" xml:space="preserve">
<style type="text/css">
	.st0{fill:url(#SVGID_1_);}
</style>
<linearGradient id="SVGID_1_" gradientUnits="userSpaceOnUse" x1="-585.9541" y1="443.3243" x2="-585.2194" y2="443.0701" gradientTransform="matrix(256 0 0 -153.6 150001.5625 68129.4922)">
	<stop  offset="0" style="stop-color:#2298BD"/>
	<stop  offset="1" style="stop-color:#0ED7B5"/>
</linearGradient>
<path class="st0" d="M93.8,0C69.4,0,54.1,12.2,48,36.6c9.2-12.2,19.8-16.8,32-13.7c7,1.7,11.9,6.8,17.4,12.4
	c9,9.1,19.4,19.6,42,19.6c24.4,0,39.7-12.2,45.8-36.6c-9.1,12.2-19.8,16.8-32,13.7c-7-1.7-11.9-6.8-17.4-12.4
	C126.8,10.5,116.4,0,93.8,0z M48,54.9c-24.4,0-39.7,12.2-45.8,36.6c9.2-12.2,19.8-16.8,32-13.7c7,1.7,11.9,6.8,17.4,12.4
	c9,9.1,19.4,19.6,42,19.6c24.4,0,39.7-12.2,45.8-36.6c-9.1,12.2-19.8,16.8-32,13.7c-7-1.7-11.9-6.8-17.4-12.4
	C81.1,65.4,70.7,54.9,48,54.9z"/>
</svg>
